<?xml version="1.0" encoding="UTF-8"?>
<svg id="Layer_1" data-name="Layer 1" xmlns="http://www.w3.org/2000/svg" viewBox="0 0 1019.41 1019.25">
  <defs>
    <style>
      .cls-1 {
        font-family: 39Smooth, '39 Smooth';
        font-size: 84.04px;
      }

      .cls-1, .cls-2 {
        fill: #0b0b09;
      }

      .cls-3 {
        fill: #512e1d;
        stroke: #512e1d;
        stroke-miterlimit: 10;
        stroke-width: .88px;
      }

      .cls-4 {
        fill: #d2aa78;
      }

      .cls-4, .cls-5, .cls-6, .cls-7, .cls-8, .cls-9, .cls-2, .cls-10, .cls-11, .cls-12, .cls-13, .cls-14 {
        stroke-width: 0px;
      }

      .cls-5 {
        fill: #db8d10;
      }

      .cls-6 {
        fill: #dc890c;
      }

      .cls-7 {
        fill: #dc8c0d;
      }

      .cls-8 {
        fill: #0f0f0e;
      }

      .cls-9 {
        fill: #0c0c0c;
      }

      .cls-10 {
        fill: #663a22;
      }

      .cls-11 {
        fill: #db8b08;
      }

      .cls-12 {
        fill: #040503;
      }

      .cls-13 {
        fill: #ede8dd;
      }

      .cls-14 {
        fill: #df8d0c;
      }
    </style>
  </defs>
  <rect class="cls-13" width="1019.41" height="1019.41"/>
  <g>
    <g>
      <path class="cls-14" d="m506.2,263.34c1.17,17.93,2.39,35.86,3.5,53.8.77,12.45,1.29,24.91,2.15,37.35.23,3.35-.33,4.65-4.1,4.42-7.68-.46-7.72-.24-7.3-7.73,1.58-27.83,3.17-55.66,4.77-83.49.08-1.45.25-2.89.38-4.34.2,0,.4,0,.61,0Z"/>
      <g>
        <path class="cls-11" d="m491.58,422.61c-12.05.4-26.36,1.82-40.69,3.04-9.44.81-9.68.57-7.26-8.55,7.75-29.32,34.8-49.32,64.78-47.91,31.27,1.48,57.03,24.17,61.93,54.58,2.15,13.36,1.9,13.63-11.28,15.67-5.98.93-11.95,1.36-17.98.65-5.65-.66-10.78-2.47-15.23-6.23-12.68-10.73-14.94-11.46-34.27-11.25Z"/>
        <path class="cls-7" d="m406.07,296.21c1.7,2.11,3.43,4.2,5.1,6.33,16.96,21.51,33.87,43.06,50.93,64.49,2.28,2.87,2.21,4.27-.97,6.32-6.98,4.51-6.98,4.76-11.29-2.36-14.93-24.65-29.76-49.35-44.64-74.03.29-.25.58-.5.86-.76Z"/>
        <path class="cls-7" d="m365.93,333.86c1.48-.55,2.15.14,2.86.6,24.86,16.31,49.68,32.68,74.62,48.88,3.18,2.07,3.57,3.67.76,6.1-.11.09-.19.23-.27.34q-4.49,6.12-10.23,1.3c-22.49-18.99-44.97-37.99-67.74-57.23Z"/>
        <path class="cls-5" d="m338.89,381.99c9.47,1.21,18.59,4.05,27.84,6.24,21.54,5.11,43.02,10.45,64.57,15.52,3.17.75,4.4,1.38,3.08,5.03-2.77,7.62-2.58,7.85-10.29,5.02-27.26-9.98-54.48-20.06-81.7-30.13-1.22-.45-2.36-1.14-3.54-1.71l.04.03Z"/>
        <path class="cls-7" d="m453.85,274.39c3.32,8.48,6.45,16.45,9.57,24.42,7.58,19.36,15.1,38.75,22.79,58.06,1.12,2.8.98,3.95-2.18,4.91-8.95,2.71-8.81,2.84-11.05-6.22-6.32-25.58-12.72-51.15-19.08-76.72-.3-1.23-1-2.43-.06-4.44Z"/>
        <polygon class="cls-5" points="338.85 381.95 338.78 381.84 338.89 381.99 338.85 381.95"/>
        <path class="cls-4" d="m356.34,467.26s-.03,0-.04,0c.02.02.04.04.05.06,0-.03,0-.04,0-.07Zm36.34,120.89c-10.26-.03-20.52-.04-30.78,0-2.02,0-4.02.52-4.05,3.03-.03,2.88,2.19,3.05,4.36,3.05h14.51v-.17c5.28,0,10.56,0,15.83,0,2.01,0,3.63-.93,3.72-2.94.11-2.17-1.65-2.97-3.59-2.98Zm10.44-14.3c-4.1.02-8.19,0-12.29,0v.23c-4.24,0-8.48.02-12.73,0-2.06,0-3.63.91-3.64,2.95-.03,2.13,1.75,2.86,3.69,2.88,8.34.05,16.67.1,25.01.1,2.17,0,3.82-.96,3.7-3.35-.12-2.16-1.76-2.8-3.74-2.8Zm140.71,31.4c-4.06-.16-8.13-.15-12.21-.07-1.61.04-2.78.98-2.86,2.71-.08,1.95,1.13,2.98,2.93,3.11,2.03.14,4.07.03,6.1.03v-.02c1.9,0,3.78.06,5.67-.02,1.71-.07,3.34-.66,3.4-2.64.04-1.83-1.25-3.03-3.03-3.1Zm7.59-13.86c-5.56-.02-11.11,0-16.67,0v.09h-18.42c-1.64,0-3.03.62-3.18,2.34-.18,1.92,1.16,2.87,2.94,3.16.72.11,1.46.12,2.19.12,11.11,0,22.23-.03,33.33-.04,2.12,0,4.5-.04,4.41-2.91-.09-2.86-2.53-2.73-4.6-2.74Z"/>
        <path class="cls-9" d="m457.83,449.28c-.12,1.87-1.48,2.79-3.32,2.83-2.04.04-4.08,0-6.13,0v-.18c-2.2,0-4.39.11-6.57-.04-1.91-.12-3.48-.98-3.39-3.22.08-2.06,1.64-2.64,3.37-2.66,4.24-.04,8.48-.04,12.71.04,2.03.04,3.47,1.05,3.33,3.21Z"/>
        <path class="cls-10" d="m356.34,467.26s-.03,0-.04,0c.02.02.04.04.05.06,0-.03,0-.04,0-.07Z"/>
        <g>
          <path class="cls-7" d="m558.38,274.34c-3.98,16.94-7.94,33.88-11.94,50.81-2.86,12.11-5.81,24.19-8.61,36.32-.69,2.99-1.43,4.11-4.88,2.57-7.62-3.4-7.69-3.13-4.7-11.23,9.18-24.85,18.32-49.71,27.48-74.56.54-1.46,1.18-2.87,1.77-4.31.29.14.58.27.87.41Z"/>
          <g>
            <path class="cls-2" d="m691.17,469.37c-5.9-3.83-11.7-7.83-17.7-11.49-8.09-4.91-11.74-11.9-11.14-21.34.26-4.08.32-8.24-.09-12.3-.62-6-5.05-9.41-11.03-8.68-2.59.32-5.18,1.08-7.65,1.95-10.92,3.88-21.37,8.88-32.04,13.36-17.14,7.21-33.95,15.57-52.76,17.58-15.51,1.65-30.22-.28-42.05-11.98-4.57-4.52-10.35-5.74-16.53-6.03-13.55-.63-27,.5-40.39,2.26-11.76,1.55-22.69.53-32.63-6.79-6.15-4.53-13.5-6.25-21.05-7.01-6.29-.64-12.6-.76-20.73-.56-8.28.53-18.44.41-28.45,2.25-9.48,1.74-12.16,4.57-12.81,14.31-.69,10.66-4,20.03-12.12,27.4-2.16,1.96-4.01,4.3-5.77,6.63-9.76,13.02-5.63,26.77,9.79,32.06,6.91,2.37,14.19,3.73,21.05,6.24,7.2,2.62,7.85,4.57,5.08,10.97-11.4,26.37-21.49,53.26-30.63,80.49-1.63,4.87-3.1,9.8-3.3,14.99-.27,6.69,2.26,10.36,8.61,12.65,5.27,1.89,10.67,1.88,16.07.86,16.18-3.08,31.56-9.03,47.45-13.12,6.68-1.71,13.33-3.62,20.24-4.04,5.42-.34,6.42.98,4.98,6.1-.6,2.11-1.28,4.22-1.65,6.38-1.26,7.49,3.34,13.53,10.89,14,3.79.24,7.64.03,11.43-.27,15.37-1.22,30.76-1.74,46.18-1.9,6.02-.05,11.59.83,16.82,4,3.63,2.21,7.69,3.58,11.75,4.87,8.04,2.55,15.57,2,22.48-3.37,2.88-2.24,6.06-4.12,9.12-6.13,15.11-9.98,31-12.16,48.16-5.61,13.41,5.12,27.02,9.71,40.63,14.3,10.68,3.6,14.28,1.76,19.08-8.39,7.53-15.91,14.84-31.97,28.59-43.86,2.92-2.52,2.99-5.92,1.03-9.22-2.93-4.95-6.57-9.37-10.15-13.83-4.22-5.27-8.24-10.69-11.18-16.81-4.78-9.91-6.76-20.3-4.6-31.2,1.22-6.18,3.37-7.28,8.77-4.33,5.34,2.9,10.1,2.21,14.77-1.22,5.72-4.22,9.27-9.74,9.84-16.92.35-4.38.33-8.8.76-13.18.61-6.28-2.06-10.73-7.16-14.05Zm1.26,13.87c-.44,4.82-.27,9.68-1.05,14.48-.72,4.43-2.93,7.95-6.44,10.65-2.88,2.22-5.84,2.76-9.41,1.13-9.71-4.44-14.91-1.98-17.04,8.66-2.99,14.98.68,28.8,8.8,41.54,4.59,7.2,10.15,13.65,15.28,20.45,3.68,4.89,3.7,5.03-.69,8.89-7.3,6.42-12.37,14.49-16.85,22.93-3.78,7.12-7.39,14.34-10.74,21.67-1.89,4.13-4.48,5.31-8.76,4.04-13.24-3.91-25.99-9.17-39-13.72-11.91-4.16-23.93-7.19-36.62-4.1-9.25,2.26-17.97,6.12-25.14,12.22-9.91,8.42-20.01,8.53-30.33,2.13-11.49-7.13-23.98-5.75-36.35-5.42-12.61.34-25.21,1.34-37.8,2.05-1.17.06-2.36.13-3.52.05-6.2-.43-8.34-3.48-6.67-9.44.27-.99.64-1.95.93-2.94,2.96-10.04-1.23-15.15-11.6-14.09-7.47.77-14.73,2.55-21.96,4.49-14.45,3.86-28.54,8.97-43.17,12.16-5.07,1.1-10.11,1.4-15.21-.2-4.29-1.36-5.8-4.02-5.04-8.34,1.64-9.3,4.91-18.11,8.12-26.92,8.18-22.46,16.36-44.91,25.9-66.84,3.48-7.99,2.32-11.04-5.23-15.4-2.97-1.71-6.27-2.42-9.52-3.35-5.77-1.67-11.66-3.03-17.26-5.15-9.51-3.61-12.1-12.89-6.08-21.03,2.53-3.41,5.28-6.69,8.22-9.76,7.14-7.44,10.66-16.29,11.32-26.51.64-9.85,1.46-10.51,11.46-11.78,8.9-1.14,17.83-1.67,28.11-1.69,4.83.13,10.99-.1,17.15.66,6.82.85,13.3,2.69,18.88,6.69,9.77,6.99,20.42,8.56,32.18,7.21,14.99-1.72,30.04-3.58,45.22-2.25,3.45.3,6.72.89,9.27,3.43,14.39,14.33,32.08,16.5,51.02,13.72,11.98-1.76,23.32-5.84,34.45-10.43,14.5-5.98,28.85-12.32,43.32-18.4,3.1-1.3,6.32-2.39,9.6-3.15,4.56-1.06,6.31.37,6.39,5.12.1,5.12-.34,10.24.08,15.39.66,8.22,4.41,14.44,11.24,18.93,6.62,4.36,13.19,8.77,19.86,13.04,3.4,2.19,5.05,4.97,4.67,9.16Z"/>
            <path class="cls-7" d="m605.92,298.11c-6.16,10.1-12.34,20.2-18.49,30.31-9.36,15.42-18.76,30.81-27.99,46.3-1.66,2.79-2.72,3.32-5.51,1.11-7.13-5.66-7.21-5.45-1.56-12.52,16.49-20.62,32.94-41.27,49.41-61.9,1.08-1.36,2.2-2.68,3.31-4.02.27.24.55.48.82.71Z"/>
            <path class="cls-6" d="m644.11,335.78c-8.53,7.01-16.64,13.69-24.76,20.37-14.82,12.18-29.68,24.32-44.43,36.59-2.5,2.08-4.08,2.76-5.78-.76-1.06-2.19-4.45-4.93-3.94-5.88,1.19-2.21,4.03-3.61,6.35-5.11,22.86-14.8,45.75-29.56,68.65-44.31.92-.59,1.75-1.64,3.92-.9Z"/>
            <path class="cls-6" d="m668.62,384.01c-28.87,10.5-57.1,20.74-85.28,31.08-2.61.96-3.8.79-4.65-2.17-2.32-8.12-2.47-8.15,5.74-10.12,26.06-6.27,52.14-12.48,78.2-18.74,1.74-.42,3.42-.54,5.98-.05Z"/>
            <path class="cls-4" d="m687.76,474.08c-6.67-4.28-13.25-8.69-19.86-13.04-6.83-4.49-10.58-10.71-11.24-18.93-.41-5.15.02-10.27-.08-15.39-.09-4.75-1.83-6.18-6.39-5.12-3.27.76-6.5,1.85-9.6,3.15-14.46,6.08-28.82,12.42-43.32,18.4-11.13,4.59-22.47,8.67-34.45,10.43-18.95,2.78-36.64.61-51.02-13.72-2.55-2.54-5.82-3.13-9.27-3.43-15.18-1.33-30.23.53-45.22,2.25-11.76,1.36-22.4-.22-32.18-7.21-5.58-4-12.07-5.84-18.88-6.69-6.16-.76-12.31-.53-17.15-.66-10.28.03-19.21.56-28.11,1.69-9.99,1.27-10.82,1.93-11.46,11.78-.65,10.22-4.17,19.08-11.32,26.51-2.94,3.07-5.69,6.34-8.22,9.76-6.02,8.13-3.43,17.42,6.08,21.03,5.6,2.13,11.49,3.48,17.26,5.15,3.25.93,6.54,1.64,9.52,3.35,7.55,4.36,8.71,7.41,5.23,15.4-9.54,21.93-17.73,44.38-25.9,66.84-3.21,8.81-6.48,17.62-8.12,26.92-.77,4.32.75,6.99,5.04,8.34,5.1,1.61,10.13,1.31,15.21.2,14.63-3.19,28.73-8.3,43.17-12.16,7.23-1.94,14.49-3.72,21.96-4.49,10.36-1.07,14.56,4.05,11.6,14.09-.29.99-.65,1.95-.93,2.94-1.68,5.95.47,9.01,6.67,9.44,1.16.08,2.35,0,3.52-.05,12.6-.71,25.19-1.71,37.8-2.05,12.37-.34,24.86-1.71,36.35,5.42,10.32,6.39,20.43,6.29,30.33-2.13,7.17-6.09,15.89-9.96,25.14-12.22,12.69-3.09,24.71-.06,36.62,4.1,13.01,4.54,25.76,9.81,39,13.72,4.28,1.27,6.87.09,8.76-4.04,3.35-7.33,6.96-14.55,10.74-21.67,4.48-8.44,9.54-16.51,16.85-22.93,4.39-3.86,4.37-4,.69-8.89-5.12-6.79-10.69-13.25-15.28-20.45-8.12-12.75-11.79-26.57-8.8-41.54,2.13-10.65,7.33-13.1,17.04-8.66,3.57,1.63,6.53,1.09,9.41-1.13,3.51-2.7,5.72-6.22,6.44-10.65.78-4.81.61-9.67,1.05-14.48.38-4.19-1.27-6.97-4.67-9.16Zm-331.46-6.81s.03,0,.04,0c0,.03,0,.04,0,.07-.02-.03-.04-.04-.05-.06Zm36.25,126.8c-5.27,0-10.55,0-15.83,0v.17h-14.51c-2.17,0-4.38-.18-4.36-3.05.03-2.51,2.03-3.02,4.05-3.03,10.26-.04,20.52-.04,30.78,0,1.94,0,3.7.81,3.59,2.98-.1,2-1.71,2.94-3.72,2.94Zm10.62-14.07c-8.34,0-16.68-.04-25.01-.1-1.94-.02-3.71-.75-3.69-2.88.02-2.04,1.59-2.95,3.64-2.95,4.24.03,8.48,0,12.73,0v-.23c4.09,0,8.19,0,12.29,0,1.98,0,3.62.64,3.74,2.8.12,2.39-1.53,3.35-3.7,3.35Zm51.34-127.89c-2.04.04-4.08,0-6.13,0v-.18c-2.2,0-4.39.11-6.57-.04-1.91-.12-3.48-.98-3.39-3.22.08-2.06,1.64-2.64,3.37-2.66,4.24-.04,8.48-.04,12.71.04,2.03.04,3.47,1.05,3.33,3.21-.12,1.87-1.48,2.79-3.32,2.83Zm88.96,158.89c-1.89.08-3.78.02-5.67.02v.02c-2.03,0-4.07.11-6.1-.03-1.8-.13-3.01-1.16-2.93-3.11.08-1.73,1.25-2.67,2.86-2.71,4.08-.08,8.15-.09,12.21.07,1.78.07,3.08,1.28,3.03,3.1-.05,1.98-1.68,2.57-3.4,2.64Zm8.13-13.94c-11.1.02-22.22.04-33.33.04-.72,0-1.46,0-2.19-.12-1.78-.29-3.11-1.23-2.94-3.16.16-1.72,1.54-2.34,3.18-2.34h18.42v-.09c5.56,0,11.11,0,16.67,0,2.06,0,4.51-.11,4.6,2.74.09,2.88-2.29,2.9-4.41,2.91Zm86.51-128.6c-3.64.08-7.29.02-10.94.02-3.35,0-6.71.04-10.06,0-1.78-.03-3.24-.71-3.25-2.75,0-2.01,1.4-2.77,3.2-2.8,6.99-.12,14-.22,21-.26,1.88,0,3.07,1.07,3.17,2.94.11,2.05-1.34,2.82-3.11,2.87Zm-.19-12.74c-10.51-.04-21.04-.06-31.56-.11-1.92,0-3.7-.64-3.71-2.83,0-2.43,1.87-2.99,3.99-2.98,5.27.03,10.52,0,15.78,0v-.1c5.12,0,10.23.03,15.35,0,2.08,0,4.04.36,4.07,2.86.02,2.34-1.74,3.17-3.91,3.16Z"/>
            <path class="cls-8" d="m622.42,449.71c5.11,0,10.23.02,15.34-.01,2.08-.01,4.04.36,4.06,2.85.02,2.34-1.73,3.17-3.9,3.16-10.52-.03-21.04-.06-31.56-.11-1.93,0-3.71-.64-3.71-2.83,0-2.44,1.87-2.99,3.99-2.98,5.26.02,10.52,0,15.78,0,0-.03,0-.06,0-.1Z"/>
            <path class="cls-12" d="m627.18,468.48c-3.36,0-6.71.04-10.07-.01-1.78-.03-3.24-.71-3.25-2.74-.01-2.02,1.4-2.78,3.2-2.81,7-.12,14-.22,21.01-.26,1.88-.01,3.07,1.07,3.17,2.93.11,2.05-1.34,2.83-3.11,2.87-3.64.08-7.29.02-10.94.03Z"/>
            <path class="cls-3" d="m629.52,500.37c-2.36-1.56-5.16-1.86-7.83-2.06-7.81-.6-15.49-1.95-23.06-3.91-4.14-1.07-8.15-2.47-11.67-5.05-2.6-1.91-5.05-3.97-7.54-6.02-3.18-2.63-6.96-4.39-10.42-6.62-5.97-3.83-12.52-5.42-19.47-5.8-4.52-.25-8.73,1.42-13.09,2.17-5.88,1.02-11.75,1.72-17.5-.43-3.56-1.33-7.16-2.38-10.94-2.84-7.47-.9-14.97-1.39-22.45-.53-2.81.32-5.83.85-7.62,3.7-1.13,1.8-2.71,1.82-4.71,1.19-3.17-.99-6.37-1.92-9.69-2.35-8.9-1.14-16.41,2.8-23.59,6.99-4.6,2.68-8.72,6.33-12.66,10.05-2.25,2.13-4.57,3.8-7.88,1.16-1.22-.96-3.49-.55-5.27.03-.65.21-1.46.38-1.21,1.28.22.79,1,.46,1.56.37,1.73-.25,3.64-.81,5.13.14,3.26,2.05,5.78.61,8.23-1.31,4.82-3.78,9.47-7.8,14.54-11.26,1.61-1.1,3.55-1.54,5.29-2.42,6.06-3.01,12.36-4.14,19.14-2.5,7.86,1.91,15.27,5.16,23.02,7.36,8.75,2.5,17.52,4.16,26.65,3.45,2.49-.2,4.99-.32,7.5-.46.66-.04,1.5-.23,1.88.44.44.78-.27,1.32-.7,1.95-.91,1.36-1.92,2.69-2.19,4.37.19.5-.1,1.2.13,1.68.09,1.68.24,4.32-.06,7.36-.18,1.88-.48,3.4-.71,4.42.26,2.52-1.32,3.65-3.38,4.37-1.63.56-3.1,1.41-4.55,2.33-1.2.77-1.74,1.83-1.34,3.26,0,0,.34,1.7-.18,4.22-.26,1.22-1.62,2.75-4.36,5.82,0,0-1.31,1.46-1.61,2.57-2.47-1.65-5.09-2.35-8.22-1.71-5.6,1.13-10.59,3.96-15.17,6.89-9.45,6.05-18.31,13.03-26.65,20.6-1.6,1.45-3.33,2.7-5.6,3.25-3.2.76-6.45,1.51-9.44,3-1.54.78-2.95.13-4.27-.59-2.86-1.57-4.76-3.9-6.16-6.89-1.13-2.44-1.82-5-2.61-7.53-1.46-4.63-3.44-8.93-6.79-12.49-2.99-3.18-5.43-6.76-6.88-10.81-1.25-3.49-1.89-7.23-3.02-10.76-2.42-7.57-4.87-15.13-9.3-21.93-4.15-6.38-9.22-10.58-17.22-10.13-.07,0-.15,0-.23,0-1.32.04-2.04-.44-2.28-1.91-.3-1.91-1.07-3.76-1.39-5.67-.55-3.25-2.44-6.44-.76-9.88.19-.41.07-.74-.29-.96-.47-.29-.84-.15-1.15.3-.44.63-.82,1.23-.87,2.05-.17,2.91.4,5.72,1.46,8.35.49,1.19-.23,2.75,1.01,3.57,1.86,1.23.11,2.57.08,3.77-.04,1.04-1.5.38-2.35.3-.45-.04-.9-.13-1.35-.18-6.99-.76-13.51-2.55-18.13-8.42-.55-.69-1.23-1.29-2.1-.6-1.08.88.08,1.41.47,2.03,1.45,2.28,4.17,3.15,5.86,5.17.04.04.04.1.04.15.11,0,.25-.04.33,0,4.22,2.57,9.16,2.2,13.74,3.31,1.86.11,3.78-.51,5.57.41l2.65.21c.62-.33,1.23-.35,1.83.04,4.5-.26,7.63,2.25,10.5,5.22,4.09,4.22,6.29,9.47,8.18,14.91,1.37,3.96,3.17,7.79,4.08,11.9,1.04,4.69,2.88,9.11,4.7,13.51,1.56,3.78,4.89,6.37,7.14,9.7,2.36,3.48,4.52,7.02,5.32,11.22,1.07,5.61,3.63,10.31,8.39,13.66.67-.15.91.31,1.12.8,1.38-.12,2.48.87,3.8.93.93-.31,1.88-.32,2.82-.08.89-.12,1.78-.25,2.66-.37.23-.34.57-.35.93-.34.23-.04.47-.1.71-.14.24-.46.63-.69,1.14-.71.23-.06.47-.13.7-.19,1.2-.9,2.32-1.95,3.63-2.65,1.48-.78,3.12-1.15,4.47.42.56.17,1.13.34,1.7.52,2.8.44,5.13,1.72,6.92,3.95l.05.04c1.53.4,2.54,1.49,3.5,2.64,2.7,1.76,2.74,4.78-.03,6.97-2.65,2.09-4.97,4.52-7.67,6.55-2.46,1.86-5.24,3.33-7.51,5.32-3.91,3.44-8.31,6.29-12.19,9.74.86.3,1.61.7,2.26,1.2.17-.14.33-.29.48-.45,1.53-2.3,3.98-3.56,6.08-5.19.86-.67,1.47-1.74,2.65-2.02,1.69-1.98,4.11-2.88,6.24-4.21,1.02-1.31,2.08-2.57,3.77-3.07,2.63-2.32,5.27-4.62,7.88-6.98,3.14-2.85,3.05-5.91.08-8.91-3.25-3.29-7.04-5.7-11.31-7.3.08-.66.53-.64.86-.64,11.43-.49,22.29,1.3,31.96,7.9,4.82,3.28,9.36,6.91,13.79,10.69,2.26,1.93,4.85,3.41,7.75,4.26.37-.1.71-.06.93.3.43.13.86.26,1.29.4,1.53.1,3.08.2,4.61.3,2.9-.69,5.87-1.14,8.5-2.74.47-.29,1.26-.85,2.09-.26.74.53,1.4-.06,1.7-.61.9-1.68,2.56-1.91,4.13-2.35.31-.56.57-1.23,1.31-.41,3.68-1.02,7.29-2.21,11.14-2.65,7.79-.91,15.45-.54,22.82,2.2,6.33,2.36,12.28,5.53,17.79,9.47,1.58,1.13,3.16,2.21,3.84,4.15,1.88-.06,2.36,1.08,2.31,2.68,1.75.3,2.35,1.89,3.03,3.09,1.68,2.92,4.72,4.74,6.11,7.84.34.27.71.53,1.03.84,1.43,1.36,2.61,3.34,4.3,3.98,3.06,1.14,5.71,2.73,8.45,4.45,1.76,1.1,3.16,2.48,4.45,3.93,1.33.46,2.65.94,3.98,1.43-2.21-2.9-4.44-5.81-7.89-7.65-1.42-.76-2.7-1.88-4.35-2.43-1.33-.44-2.55-1.28-3.77-2.02-.87-.54-.8-1.36-.28-2.12.96-1.42,1.97-2.8,2.95-4.2,1.68-1.91,2.55-4.21,3.62-6.47,2.75-5.91,5.79-11.65,7.59-17.99,1.98-6.92,2.11-13.57-.66-20.3-1.16-2.81-2.69-5.58-3.03-8.64-.17-1.52-.09-2.95.2-4.31.78-3.7,3.03-3.79,4.69-7.96.85-2.13,1.22-4.37,1.53-5.24.65.03.82-.84,1.16-1.31.26-.34.4-.79.56-1.21,1.42-3.82,2.31-7.8,2.66-11.84.39-4.45-.56-8.56-4.62-11.25Zm-105.57-17.77c-.59.11-1.19.21-1.78.32-.29.26-.63.24-.97.14-6.06.44-12.13.75-18.17-.27-1.73-.38-3.64.04-5.19-1.16-1.74.2-3.28-.52-4.88-1-1.17.09-2.23-.19-3.15-.95-.29-.06-.58-.12-.87-.18-.35.04-.71.08-.95-.26-2.83-.74-5.72-1.31-8.41-2.5-.71-.32-1.79-.45-1.52-1.61.22-.9.61-1.61,1.66-2.13,5.63-2.83,11.63-2.18,17.56-2.13,6.5.05,12.96.58,19.15,2.83,3.1,1.13,6.23,2.22,9.57,2.33,4.94.15,9.86-.49,14.54-1.92,7.09-2.17,13.95-1.64,20.73.86,4.5,1.66,8.8,3.78,12.73,6.6,1.83,1.31,1.88,1.92.08,2.84-6.87,3.53-14.06,5.58-21.87,4.2-3.45-.61-6.66-1.86-9.35-4.22-2.14-1.89-4.68-2.99-7.45-3.6-.61.32-1.24.31-1.88.1-.3.06-.59.11-.89.18-.26.31-.6.27-.94.24-.56.1-1.12.19-1.68.28-1.84,1.33-4,.83-6.05,1.02Zm4.61,93.72c-6.87,3.43-12.9,1.63-18.88-2.38-4.93-3.3-9.13-7.51-14.09-10.74-10.57-6.9-22.15-9.55-34.65-8.57-.37.03-.75.06-1.13.04-.21-.02-.41-.15-1.24-.47,4.69-3.22,7.93-7.55,12.64-10.16,1.17-.65,2.27-1.48,3.28-2.35,3.97-3.45,8.17-6.63,12.67-9.28,4.7-2.77,9.76-5.03,15.46-4.94.53,0,1.01.07,1.5.37,4.91,2.98,8.78,6.86,11.18,12.16,4,8.86,8.18,17.66,12.01,26.59.98,2.28,2.39,4.48,2.63,7.1.12,1.29-.06,1.98-1.38,2.64Zm53.21-1.79c-10.2-5.2-21.05-6.08-32.23-4.47-3.14.44-6.35.49-9.38,1.61-.49.18-1.13.31-1.33-.4-.2-.69.59-.49.85-.79,3.34-3.72,6.35-7.69,8.86-12.02,2.22-3.85,3.14-8.27,5.41-12.16,3.97-6.79,8.4-13.19,13.9-18.81.34-.34.46-1.15,1.17-.8.71.35.48,1.11.31,1.61-1.39,4.11-1.39,8.36-1.16,12.6.41,7.71,6.93,12.9,14.49,11.58,1.54-.27,2.07-.12,2.44,1.66,1.76,8.49,4.49,16.66,8.34,24.45.57,1.16.64,2.58,1.08,4.48-4.1-3.86-8.39-6.31-12.75-8.53Zm47.6-50.57c-.17.44-.68.96-.55,1.41-1.22,2.16-1.44,4.27-1.44,4.27-.31,2.88-3.45,2.8-4.91,6.34-1.31,3.18-1.52,6.77-.52,10.34.84,3.02,2.61,5.7,3.21,8.81,1.42,3.1,2,6.39,1.52,9.71-.55,3.73-1.4,7.43-2.59,11.03-.13.41-.41.62-.74.78-.81,4.08-3.25,7.47-4.77,11.26-1.65,4.15-4.41,7.74-6.82,11.48-.78,1.21-1.4,1.34-2.52.26-3.21-3.08-5.17-7.06-7.85-10.53-3.65-4.72-6.22-10.07-8.27-15.76-2.29-6.35-4.6-12.66-5.95-19.27-.65-3.19-1.98-4.54-4.38-3.75-6.06,1.99-9.63-1.33-12.36-7.15-1.99-4.24-1.01-8.7.4-12.96.48-1.43.89-2.93.11-4.14-1.27-1.98-.1-3.15,1.08-4.24,1.03-.95,2.32-1.66,3.55-2.36,2.6-1.48,3.97-3.84,4.82-5.35,1.57-2.8,2.08-5.96,2.05-7.73-.13.33-.36.51-.98.09-.1-.06-.18-.12-.23-.19-.46,2.35-1.02,4.28-1.52,5.71-1.17,3.43-2.02,4.45-2.71,5.09-.76.69-1.68,1.25-2.83,1.65-3.54,1.24-5.05,4.79-7.53,7.2-5.96,5.78-10.44,12.75-14.56,19.95-1.98,3.47-2.84,7.43-4.68,10.84-3.39,6.3-7.96,11.86-13.21,16.79-1.08,1.01-1.83.87-2.51-.66-2.43-5.46-4.15-11.19-6.72-16.63-2.73-5.77-5.75-11.41-8.07-17.38-1.64-4.23-4.8-7.25-8.24-10.09.66-.72,1.29-2.28,1.46-2.67,2.11-5.15,4.65-4.59,4.23-8.1-.5-4.33,1.29-6.42,5.15-7.4.29-.08.57-.2.83-.35,1.39-.79,2.44-1.8,3.06-3.08.58-1.21.6-2.32.61-2.94.05-4.07-.05-8.55-.11-10.59,0,0,.03,0,.04,0,.46-4.9,3.46-8,7.56-10.07,4.15-2.09,7.81-.07,10.84,2.45,4.82,4,10.39,5.07,16.27,4.89,6.15-.2,11.85-2.39,17.14-5.39,2.11-1.19,3.42-.56,4.73.81,2.56,2.7,5.59,4.71,8.83,6.5,1.88,1.04,4.1,1.29,5.86,2.59,1.7-.04,1.81.46,1.36,2.17-.71,2.65-2.13,3.03-4.41,2.52-1.86-.42-3.74-.14-5.6.13-2,1.09-3.55,2.66-4.79,4.55-.3.46-.98.96-.46,1.5.02-.14.04-.27.07-.41.44-.77.67-.91.8-.87.19.06.32.57.34,1.38.1-.25.15-.58.26-.81,1.62-3.35,5.63-5.27,9.16-4.36,2.13.55,3.62-.24,4.53-2.19.39-.42.98-.78,1.14-1.29.71-2.33,1.95-1.57,3.26-.65,1.93-.08,3.72.66,5.57,1.04,6.24,1.28,12.6,1.77,18.88,2.71,4.35.64,6.93,3.51,7.35,7.81.52,5.45-1.36,10.34-3.2,15.27Z"/>
          </g>
        </g>
      </g>
    </g>
    <text class="cls-1" transform="translate(279.85 737.51)"><tspan x="0" y="0">SILK ROAD</tspan></text>
  </g>
</svg>